<?xml version="1.0" encoding="UTF-8"?>
<svg id="a" data-name="Layer 1" xmlns="http://www.w3.org/2000/svg" viewBox="0 0 644.03 417.27">
  <defs>
    <style>
      .b {
        letter-spacing: -.14em;
      }

      .c {
        letter-spacing: 0em;
      }

      .d {
        font-size: 119.02px;
        stroke-width: 2px;
      }

      .d, .e {
        fill: #75a460;
        font-family: SFOldRepublic-Bold, 'SF Old Republic';
        font-weight: 700;
        stroke: #75a460;
        stroke-miterlimit: 10;
      }

      .e {
        font-size: 62.82px;
      }

      .f {
        letter-spacing: -.06em;
      }

      .g {
        letter-spacing: -.12em;
      }

      .h {
        letter-spacing: -.02em;
      }

      .i {
        fill: #cb5230;
      }

      .j {
        letter-spacing: -.04em;
      }

      .k {
        letter-spacing: -.06em;
      }

      .l {
        letter-spacing: -.08em;
      }

      .m {
        letter-spacing: -.04em;
      }

      .n {
        letter-spacing: -.08em;
      }
    </style>
  </defs>
  <text class="d" transform="translate(51.83 299.45) scale(1.17 1)"><tspan class="g" x="0" y="0">T</tspan><tspan class="n" x="50.17" y="0">abl</tspan><tspan class="h" x="204.09" y="0">e</tspan><tspan class="b" x="273.13" y="0">T</tspan><tspan class="f" x="320.92" y="0">o</tspan><tspan class="c" x="385.2" y="0">p</tspan></text>
  <text class="e" transform="translate(202.48 359.6) scale(1.14 1)"><tspan x="0" y="0">Tr</tspan><tspan class="k" x="54.17" y="0">a</tspan><tspan class="j" x="90.71" y="0">c</tspan><tspan class="l" x="123.23" y="0">k</tspan><tspan class="m" x="151.98" y="0">e</tspan><tspan x="187.17" y="0">r</tspan></text>
  <g>
    <path class="i" d="m366.63,79.76h-9.34v92.97c0,3.48-2.83,6.3-6.3,6.3h-61.67v9.34c0,4.35,3.54,7.9,7.9,7.9h69.42c4.35,0,7.9-3.54,7.9-7.9v-100.72c0-4.35-3.54-7.9-7.9-7.9Z"/>
    <g>
      <path class="i" d="m297.83,128.59l-5.16-5.25c-.62-.63-1.41-.99-2.19-.99h0c-.41,0-1,.1-1.47.59-.91.93-.75,2.67.34,3.83l5.01,5.11,3.92,3.99c.62.63,1.41.99,2.19.99h0c.41,0,1-.1,1.47-.59.91-.94.74-2.68-.36-3.85l-3.76-3.83Z"/>
      <path class="i" d="m344.54,57.67h-69.42c-4.35,0-7.9,3.54-7.9,7.9v100.72c0,4.35,3.54,7.9,7.9,7.9h69.42c4.35,0,7.9-3.54,7.9-7.9v-100.72c0-4.35-3.54-7.9-7.9-7.9Zm-66.04,6.89h25.38c1.54,0,2.79,1.25,2.79,2.79s-1.25,2.79-2.79,2.79h-25.38c-1.54,0-2.79-1.25-2.79-2.79s1.25-2.79,2.79-2.79Zm0,11.04h14.33c1.54,0,2.79,1.25,2.79,2.79s-1.25,2.79-2.79,2.79h-14.33c-1.54,0-2.79-1.25-2.79-2.79s1.25-2.79,2.79-2.79Zm62.32,89.07h-25.38c-1.54,0-2.79-1.25-2.79-2.79s1.25-2.79,2.79-2.79h25.38c1.54,0,2.79,1.25,2.79,2.79s-1.25,2.79-2.79,2.79Zm0-10.91h-14.33c-1.54,0-2.79-1.25-2.79-2.79s1.25-2.79,2.79-2.79h14.33c1.54,0,2.79,1.25,2.79,2.79s-1.25,2.79-2.79,2.79Zm2.61-52.34l-36.01,29.91c1.26,3.02.78,6.52-1.49,8.85-1.43,1.46-3.36,2.26-5.45,2.26h0c-1.2,0-2.39-.28-3.5-.78l-7.71,7.86c-.52.53-1.24.84-1.99.84s-1.47-.3-1.99-.84l-9.28-9.46c-1.06-1.08-1.06-2.82,0-3.9l7.71-7.86c-1.48-3.1-1.07-6.81,1.3-9.24,1.43-1.46,3.36-2.26,5.45-2.26h0c1.21,0,2.42.28,3.53.8l30.61-35.36c.53-.62,1.32-.96,2.13-.96l14.82.11c1.52.01,2.76,1.24,2.77,2.77l.11,15.12c0,.84-.36,1.63-1.01,2.16Z"/>
      <polygon class="i" points="287.27 132.62 281.9 138.1 287.28 143.58 292.65 138.1 290.45 135.86 287.27 132.62"/>
      <polygon class="i" points="327.99 86.84 298.31 121.12 301.67 124.55 304 126.92 338.85 97.97 338.78 86.92 327.99 86.84"/>
    </g>
  </g>
</svg>