<?xml version="1.0" encoding="UTF-8"?>
<svg id="a" data-name="Layer 1" xmlns="http://www.w3.org/2000/svg" viewBox="0 0 200 200">
  <defs>
    <style>
      .b {
        fill: #fff;
      }
    </style>
  </defs>
  <path class="b" d="m119.38,82.4c5.03-4.99,8.15-11.9,8.15-19.54,0-15.2-12.32-27.52-27.52-27.52s-27.52,12.32-27.52,27.52c0,7.61,3.09,14.49,8.07,19.47-4.21,2.12-6.77,5.04-6.77,8.54v38.14c0,5.1,3.24,8.62,8.41,10.82v15.53c0,6.6,7.98,9.32,17.81,9.32s17.81-4.93,17.81-9.32v-16.69c5.17-2.67,8.41-6.27,8.41-9.66v-38.14c0-3.39-2.59-6.32-6.85-8.47Z"/>
</svg>