<?xml version="1.0" encoding="UTF-8"?>
<svg id="a" data-name="Layer 1" xmlns="http://www.w3.org/2000/svg" viewBox="0 0 200 200">
  <defs>
    <style>
      .b {
        fill: #cb5230;
      }
    </style>
  </defs>
  <path class="b" d="m166.09,80.21l-55.46-46.84c-5.87-4.96-15.39-4.96-21.27,0l-55.46,46.84c-7,5.91-2.04,16.03,7.86,16.03h5.86v61.44c0,7,6.1,12.68,13.62,12.68h10.84c5.5,0,9.96-4.15,9.96-9.27v-32.76c0-5.12,4.46-9.27,9.96-9.27h15.98c5.5,0,9.96,4.15,9.96,9.27v32.76c0,5.12,4.46,9.27,9.96,9.27h10.84c7.52,0,13.62-5.68,13.62-12.68v-61.44h5.86c9.9,0,14.86-10.11,7.86-16.03Z"/>
</svg>