<?xml version="1.0" encoding="UTF-8"?>
<svg id="a" data-name="Layer 1" xmlns="http://www.w3.org/2000/svg" viewBox="0 0 200 200">
  <defs>
    <style>
      .b {
        fill: #fff;
      }
    </style>
  </defs>
  <path class="b" d="m166.75,143.92h-.01c.05-3.14-1.4-6-3.71-7.68l-43.83-32.61c2.04-5.97,2.75-12.24,2.18-18.38,1.38-14.7-4.64-29.75-17.26-39.34-19.43-14.75-47.14-10.96-61.89,8.47-5.71,7.52-8.63,16.28-8.95,25.05h-.01v.35c-.03.92-.03,1.84,0,2.76v5.5c-.4,13.77,5.62,27.53,17.43,36.49,15.66,11.89,36.69,11.73,51.99,1.06l45.06,34.31c7.36,5.05,12.56,3.56,16.28-.84,1.82-2.16,2.64-4.5,2.71-6.72h.02v-8.42Zm-105.62-41.38c-5.79-4.4-9.3-10.69-10.32-17.35.66-4.27,2.37-8.44,5.16-12.12,8.99-11.84,25.89-14.16,37.73-5.16,5.79,4.4,9.3,10.69,10.32,17.35-.66,4.27-2.37,8.44-5.16,12.12-8.99,11.84-25.89,14.16-37.73,5.16Z"/>
</svg>