<?xml version="1.0" encoding="UTF-8"?>
<svg id="a" data-name="Layer 1" xmlns="http://www.w3.org/2000/svg" viewBox="0 0 200 200">
  <defs>
    <style>
      .b {
        fill: #fff;
      }
    </style>
  </defs>
  <path class="b" d="m109.12,34.5l14.58,29.55c1.56,3.17,4.58,5.36,8.08,5.87l32.61,4.74c8.8,1.28,12.31,12.09,5.95,18.3l-23.6,23c-2.53,2.46-3.68,6.01-3.09,9.49l5.57,32.48c1.5,8.76-7.69,15.45-15.56,11.31l-29.17-15.33c-3.13-1.64-6.86-1.64-9.98,0l-29.17,15.33c-7.87,4.14-17.07-2.55-15.56-11.31l5.57-32.48c.6-3.48-.56-7.03-3.09-9.49l-23.6-23c-6.37-6.21-2.85-17.02,5.95-18.3l32.61-4.74c3.49-.51,6.51-2.7,8.08-5.87l14.58-29.55c3.93-7.97,15.3-7.97,19.24,0Z"/>
</svg>