<?xml version="1.0" encoding="UTF-8"?>
<svg id="a" data-name="Layer 1" xmlns="http://www.w3.org/2000/svg" viewBox="0 0 200 200">
  <defs>
    <style>
      .b {
        fill: #cb5230;
      }
    </style>
  </defs>
  <path class="b" d="m165.74,78.59c-.08-.11-22.52-30.81-22.52-30.81-2.82-4.94-8.35-4.62-10.58-3.51l-34.69,11.78v-4.94c0-2.9-5.47-4.53-12.21-4.53s-12.21,1.87-12.21,4.63v13.14l-11.09,3.76c-2.84,1.08-5.15,2.31-7.55,4.14l-20.2,13.7c-4.03,2.23-6.12,7.28.91,10.39l4.57,1.96c0,.06-.02,30.68-.02,30.68,0,.98.02,4.77,3.18,6.68l42.43,19.31c2.89,1.46,6.27,2,9.28.78l63.71-26.68c3.6-1.91,3.6-6.29,3.6-7.14l-.48-30.29c1.88-.68,1.91-.88,1.91-.88,6.3-2.87,6.94-5.1,1.98-12.16Z"/>
</svg>